<?xml version="1.0" encoding="UTF-8" standalone="no"?>
<!-- Created with Inkscape (http://www.inkscape.org/) -->

<svg
   width="460"
   height="65"
   viewBox="0 0 121.70833 17.197917"
   version="1.1"
   id="svg1"
   xml:space="preserve"
   inkscape:version="1.4 (86a8ad7, 2024-10-11)"
   sodipodi:docname="drawing.svg"
   xmlns:inkscape="http://www.inkscape.org/namespaces/inkscape"
   xmlns:sodipodi="http://sodipodi.sourceforge.net/DTD/sodipodi-0.dtd"
   xmlns="http://www.w3.org/2000/svg"
   xmlns:svg="http://www.w3.org/2000/svg"><sodipodi:namedview
     id="namedview1"
     pagecolor="#ffffff"
     bordercolor="#000000"
     borderopacity="0.25"
     inkscape:showpageshadow="2"
     inkscape:pageopacity="0.0"
     inkscape:pagecheckerboard="0"
     inkscape:deskcolor="#d1d1d1"
     inkscape:document-units="mm"
     showguides="true"
     inkscape:zoom="1.4378367"
     inkscape:cx="266.37239"
     inkscape:cy="83.110968"
     inkscape:window-width="1920"
     inkscape:window-height="1009"
     inkscape:window-x="-8"
     inkscape:window-y="-8"
     inkscape:window-maximized="1"
     inkscape:current-layer="layer1"><sodipodi:guide
       position="47.249157,89.965729"
       orientation="0,-1"
       id="guide2"
       inkscape:locked="false" /></sodipodi:namedview><defs
     id="defs1" /><g
     inkscape:label="Layer 1"
     inkscape:groupmode="layer"
     id="layer1"><g
       id="g2"
       transform="translate(-43.069112,-190.35977)"><path
         style="fill:#000000;fill-opacity:1"
         d="m 101.45488,206.92136 c -1.885853,-0.85441 -2.598693,-2.75569 -2.443603,-6.5175 0.16088,-3.90237 1.239353,-5.51643 3.835393,-5.74014 2.64429,-0.22787 4.05186,1.28395 4.26333,4.5791 l 0.12545,1.95479 h -3.24622 -3.24623 l 0.17394,1.52135 c 0.21314,1.86435 0.85115,2.81525 1.96338,2.92627 1.19336,0.11911 1.84813,-0.34606 2.17008,-1.54171 0.2636,-0.97893 0.35091,-1.05383 1.2283,-1.05383 0.89748,0 0.93559,0.0362 0.76517,0.7276 -0.26411,1.07139 -0.97467,2.18976 -1.76601,2.77956 -0.89251,0.66521 -2.76518,0.84376 -3.82298,0.36451 z m 3.74705,-8.43573 c -0.28985,-1.81597 -0.78361,-2.35846 -2.06008,-2.26341 -1.2563,0.0935 -1.91293,0.81466 -2.18145,2.3957 l -0.16852,0.99219 h 2.29477 2.29476 z m 6.35436,8.52189 c -1.26145,-0.37734 -2.51238,-1.80726 -2.99612,-3.42481 -0.53902,-1.80238 -0.60502,-6.95028 -0.11403,-8.89367 0.63639,-2.51889 2.50332,-4.08106 4.86279,-4.06896 2.48495,0.0128 4.24404,1.57096 4.48156,3.96981 0.0877,0.88613 0.0563,0.92207 -0.87549,0.99976 -0.93171,0.0777 -0.97274,0.0444 -1.14027,-0.92604 -0.0956,-0.55365 -0.3155,-1.19554 -0.48871,-1.42643 -0.83605,-1.11443 -2.61441,-1.35578 -3.69969,-0.5021 -1.10687,0.87065 -1.37796,2.12107 -1.3758,6.34586 0.002,4.4119 0.343,5.55229 1.87767,6.28412 1.77788,0.84782 3.47983,-0.37264 3.74013,-2.68202 l 0.13761,-1.22085 h 1.05774 1.05774 l -0.17292,1.12448 c -0.53948,3.50833 -3.20386,5.36262 -6.35221,4.42085 z m 19.03623,0.0959 c -0.9745,-0.27281 -1.76127,-0.95954 -2.34137,-2.04367 -0.50057,-0.93548 -0.58007,-1.50109 -0.58007,-4.12677 0,-2.56372 0.0862,-3.20695 0.54732,-4.08604 0.76546,-1.45917 1.68809,-2.06574 3.34431,-2.1987 1.76034,-0.14132 2.97954,0.59007 3.84743,2.30804 0.50556,1.00074 0.59531,1.60032 0.59531,3.9767 0,2.38034 -0.0889,2.9723 -0.59531,3.96335 -0.32742,0.64077 -0.90913,1.39347 -1.29269,1.67265 -0.70759,0.51504 -2.58012,0.79895 -3.52493,0.53444 z m 2.56035,-1.87096 c 0.7682,-0.87948 1.06437,-2.43018 0.95253,-4.98726 -0.13821,-3.16008 -0.60395,-3.94243 -2.347,-3.94243 -1.03113,0 -1.2023,0.0937 -1.69124,0.92605 -0.45779,0.77929 -0.54248,1.36628 -0.53439,3.70416 0.01,2.80768 0.39931,4.24653 1.2416,4.58542 0.75402,0.30338 1.99395,0.15432 2.3785,-0.28594 z m 8.67342,1.60193 c -0.62611,-0.32281 -1.14028,-0.90592 -1.5875,-1.80037 -0.58001,-1.16001 -0.66142,-1.66596 -0.66112,-4.10876 3e-4,-2.45184 0.0796,-2.93979 0.66146,-4.06983 0.87245,-1.6944 2.02123,-2.34191 3.9043,-2.20064 1.56649,0.11752 2.53123,0.80394 3.14091,2.2348 0.57839,1.35742 0.48039,1.66214 -0.53458,1.66214 -0.75852,0 -0.92545,-0.11257 -1.07895,-0.7276 -0.26839,-1.07542 -0.91218,-1.65416 -1.83501,-1.6496 -1.0853,0.005 -1.38229,0.22582 -1.86696,1.38579 -0.45805,1.09626 -0.56904,5.55821 -0.16471,6.62167 0.38549,1.01391 1.0491,1.51349 2.01043,1.51349 1.01818,0 1.61523,-0.64958 1.87634,-2.0414 0.1474,-0.78572 0.25179,-0.86901 1.08907,-0.86901 0.9249,0 0.92583,0.001 0.75056,0.99218 -0.47491,2.68512 -3.39276,4.24892 -5.70424,3.05714 z m 8.8411,0.0869 c -1.88585,-0.85441 -2.5987,-2.75569 -2.44361,-6.5175 0.16089,-3.90237 1.23936,-5.51643 3.8354,-5.74014 2.64429,-0.22787 4.05186,1.28395 4.26333,4.5791 l 0.12545,1.95479 h -3.24681 -3.24681 l 0.15541,1.50578 c 0.19005,1.84143 0.856,2.82934 1.98308,2.94184 1.19336,0.11911 1.84813,-0.34606 2.17009,-1.54171 0.26187,-0.97251 0.35482,-1.05383 1.20465,-1.05383 0.86916,0 0.91139,0.0409 0.75198,0.7276 -0.25104,1.08142 -0.94289,2.19352 -1.72918,2.77956 -0.89251,0.66521 -2.76517,0.84376 -3.82298,0.36451 z m 3.74705,-8.43573 c -0.28985,-1.81597 -0.78361,-2.35846 -2.06008,-2.26341 -1.25853,0.0937 -1.93127,0.82316 -2.2094,2.3957 l -0.17548,0.99219 h 2.31222 2.31222 z m 4.77362,8.5237 c -1.07583,-0.32212 -1.97249,-1.24751 -2.27945,-2.35249 -0.40777,-1.4679 -0.35143,-1.60715 0.65019,-1.60715 0.84394,0 0.93812,0.0827 1.19961,1.05383 0.31972,1.18737 0.87679,1.592 2.19177,1.592 1.14681,0 1.77819,-0.68168 1.77819,-1.91986 0,-1.0453 -0.82245,-1.9194 -2.09351,-2.22498 -1.65317,-0.39744 -3.00048,-1.24233 -3.3624,-2.10852 -1.06471,-2.54821 0.61443,-4.85992 3.52918,-4.85873 2.00141,8.3e-4 3.5012,1.27239 3.51033,2.97615 0.004,0.65591 -0.0874,0.72761 -0.92214,0.72761 -0.75948,0 -0.92604,-0.0983 -0.92604,-0.54656 0,-1.13192 -0.47838,-1.57011 -1.7141,-1.57011 -0.9053,0 -1.25849,0.1316 -1.57819,0.58804 -0.97793,1.39619 -0.15188,2.505 2.4241,3.25386 0.84245,0.2449 1.79938,0.75275 2.23022,1.18359 0.66046,0.66046 0.75463,0.95084 0.75463,2.32681 0,1.21213 -0.13135,1.73917 -0.57359,2.30137 -1.01128,1.28564 -2.91743,1.75444 -4.8188,1.18514 z m -77.774977,0.008 c -0.132511,-0.0355 -0.176389,-3.90327 -0.176389,-8.24464 v -7.8934 h 1.058333 1.058334 v 7.14375 7.14375 h 3.175 3.175 v 0.92604 0.92604 h -4.056945 c -2.231319,0 -4.071217,0.0419 -4.233333,-0.002 z m 9.348611,-6.08388 v -6.08541 h 0.926042 0.926041 v 6.08541 6.08542 h -0.926041 -0.926042 z m 4.497917,0.81052 v -5.30843 h -0.926042 c -0.852546,0 -0.926042,-0.063 -0.926042,-0.79375 0,-0.73076 0.0735,-0.79375 0.926042,-0.79375 h 0.926042 v -1.40909 c 0,-1.75937 0.648563,-2.47736 2.46237,-2.72597 1.240516,-0.17003 1.241796,-0.16939 1.241796,0.62123 0,0.66622 0.12419,0.74892 -0.59966,0.95532 -0.774887,0.22096 -1.128174,0.43685 -1.20149,1.44251 l -0.08136,1.116 h 0.941255 c 0.869445,0 0.941255,0.0606 0.941255,0.79375 0,0.72983 -0.0741,0.79375 -0.920449,0.79375 h -0.920447 l -0.07174,5.22552 -0.07174,5.3719 -0.859895,0.002 -0.859896,-0.007 z m 23.547929,-2.79489 v -8.06979 h 0.92604 0.92604 v 2.63319 2.6332 l 0.69368,-0.64288 c 1.35992,-1.26033 3.67582,-1.14902 4.70335,0.22607 0.52102,0.69725 0.5561,1.07259 0.5561,5.95095 v 5.35052 l -0.84337,0.001 -0.84337,0.001 -0.0827,-4.86602 c -0.0741,-4.36195 -0.13648,-4.94265 -0.5867,-5.43949 -0.73161,-0.80737 -1.88801,-0.71843 -2.82361,0.21718 l -0.7734,0.7734 v 4.65056 4.65056 h -0.92604 -0.92604 z m 17.84563,7.73252 c -0.007,-0.19858 -0.0972,-2.89417 -0.0578,-6.01927 l 0.0716,-5.682 0.8599,-0.0829 0.85989,-0.0829 v 6.10218 6.10218 h -0.81355 c -0.44113,0 -0.48651,-0.002 -0.90848,0.008 z M 80.707499,196.17048 c 0,1.58188 0,-1.42795 0,0 z m 10.054195,-4.23333 c 0,-1.03314 0.02205,-1.05833 0.926042,-1.05833 0.903993,0 0.926041,0.0252 0.926041,1.05833 0,1.03313 -0.02205,1.05833 -0.926041,1.05833 -0.903993,0 -0.926042,-0.0252 -0.926042,-1.05833 z m 45.772926,0 c 0,-1.03314 0.022,-1.05833 0.92604,-1.05833 0.904,0 0.92604,0.0252 0.92604,1.05833 0,1.03313 -0.022,1.05833 -0.92604,1.05833 -0.90399,0 -0.92604,-0.0252 -0.92604,-1.05833 z"
         id="path2"
         sodipodi:nodetypes="sssscccsssssssscscccsssscssssscsscccssssscsssssssssscsssssssssscssssscssssscccsssssssssscccsssssssssscssssssssscscccccccccsscccccccccccssscssssscsssccccccccccccsssccccsscccccccscccccsccsssssssssssss" /><path
         style="fill:#ed1b33;fill-opacity:1"
         d="m 55.34557,206.84263 c -1.714357,-0.87418 -1.993214,-1.56652 -2.085607,-5.17815 -0.07526,-2.94173 -0.02923,-3.32417 0.529167,-4.3971 0.857503,-1.64764 1.677907,-2.16187 3.709164,-2.32492 2.488052,-0.19972 3.995831,0.50746 4.760929,2.23297 0.852497,1.92262 0.812509,6.1233 -0.07534,7.91456 -0.822661,1.65974 -1.878706,2.21525 -4.211285,2.21525 -1.115006,0 -2.038832,-0.16269 -2.627026,-0.46261 z m 3.735683,-2.24855 c 0.211442,-0.3774 0.33591,-1.67469 0.340038,-3.5441 0.0056,-2.53415 -0.06436,-3.02709 -0.497515,-3.50573 -0.672573,-0.74318 -1.372455,-0.70299 -1.904748,0.10939 -0.635017,0.96916 -0.642071,5.88949 -0.0098,6.85442 0.567294,0.8658 1.610904,0.90912 2.072051,0.086 z m 5.853952,2.44555 c -1.119154,-0.45092 -1.265089,-1.16645 -1.362176,-6.67888 l -0.09204,-5.22552 h 1.743718 1.743717 v 4.30675 c 0,3.46973 0.08005,4.42104 0.411878,4.89479 0.510097,0.72827 1.017861,0.7458 1.704789,0.0589 0.486406,-0.4864 0.529167,-0.88194 0.529167,-4.89479 v -4.36562 h 1.719791 1.719792 v 5.95312 5.95313 h -1.5875 c -1.516944,0 -1.5875,-0.0294 -1.5875,-0.66146 0,-0.8372 -0.05534,-0.83 -1.017628,0.13229 -0.670103,0.6701 -0.992696,0.79114 -2.070874,0.77698 -0.702417,-0.009 -1.53723,-0.12157 -1.855139,-0.24966 z m -17.545943,-2.97714 v -2.97895 l -1.984375,-4.73139 c -1.091406,-2.60227 -1.984375,-4.77409 -1.984375,-4.82627 0,-0.0522 0.874205,-0.0949 1.942677,-0.0949 h 1.942676 l 0.877703,2.91226 c 0.482736,1.60174 0.944499,2.84546 1.026139,2.76382 0.08164,-0.0816 0.517681,-1.36239 0.968981,-2.84611 l 0.820544,-2.69768 1.897023,-0.0777 1.897024,-0.0777 -0.244479,0.64303 c -0.134463,0.35367 -1.026461,2.50076 -1.982216,4.77132 l -1.737738,4.12828 v 3.04544 3.04545 h -1.719792 -1.719792 z m 26.722917,-2.97418 v -5.95312 h 1.719792 1.719792 l 0.0013,0.85989 0.0013,0.8599 0.593999,-0.70268 c 0.690727,-0.81711 1.523124,-1.2817 2.296395,-1.2817 0.49163,0 0.546561,0.15955 0.546561,1.5875 0,1.58188 -0.0028,1.5875 -0.7813,1.5875 -1.192527,0 -2.073309,0.51757 -2.38053,1.39887 -0.152764,0.43822 -0.277753,2.32681 -0.277753,4.19686 v 3.40011 h -1.719792 -1.719792 z"
         id="path1"
         sodipodi:nodetypes="ssssssssscssssccsscccsssscccccssscssccssscssscccssccccccccccccsssssscccc" /></g></g></svg>
